<svg viewBox="0 0 225 43" xmlns="http://www.w3.org/2000/svg" data-logo="logo">
            <g transform="translate(0, 1.5) rotate(0)" id="logogram" style="opacity: 1;"><path fill="#0004E8" d="M0 15V31H5C5.52527 31 6.04541 31.1035 6.53076 31.3045C7.01599 31.5055 7.45703 31.8001 7.82837 32.1716C8.19983 32.543 8.49451 32.984 8.69556 33.4693C8.89648 33.9546 9 34.4747 9 35V40H21L36 25V9H31C30.4747 9 29.9546 8.89655 29.4692 8.69553C28.984 8.49451 28.543 8.19986 28.1716 7.82843C27.8002 7.457 27.5055 7.01602 27.3044 6.53073C27.1035 6.04544 27 5.5253 27 5V0H15L0 15ZM17 30H10V19L19 10H26V21L17 30Z" clip-rule="evenodd" fill-rule="evenodd"></path></g>
            <g transform="translate(42, 1)" id="logotype" style="opacity: 1;"><path d="M17.64 34.38L17.64 34.38Q14.58 34.38 12.31 33.44Q10.05 32.50 8.79 30.65Q7.52 28.80 7.45 26.10L7.45 26.10L12.53 26.10Q12.63 27.39 13.30 28.25Q13.96 29.11 15.07 29.54Q16.19 29.97 17.59 29.97L17.59 29.97Q18.99 29.97 20.02 29.57Q21.06 29.16 21.64 28.43Q22.22 27.69 22.22 26.72L22.22 26.72Q22.22 25.85 21.70 25.26Q21.18 24.67 20.20 24.24Q19.23 23.81 17.83 23.49L17.83 23.49L15.02 22.79Q11.79 22.00 9.96 20.32Q8.14 18.64 8.14 15.87L8.14 15.87Q8.14 13.56 9.38 11.83Q10.61 10.11 12.78 9.15Q14.94 8.19 17.71 8.19L17.71 8.19Q20.53 8.19 22.63 9.16Q24.73 10.13 25.91 11.84Q27.09 13.56 27.12 15.80L27.12 15.80L22.08 15.80Q21.94 14.26 20.77 13.42Q19.60 12.59 17.66 12.59L17.66 12.59Q16.34 12.59 15.40 12.96Q14.46 13.34 13.96 14.00Q13.47 14.67 13.47 15.53L13.47 15.53Q13.47 16.47 14.04 17.09Q14.61 17.71 15.54 18.10Q16.48 18.48 17.55 18.74L17.55 18.74L19.86 19.30Q21.47 19.66 22.85 20.28Q24.23 20.89 25.28 21.79Q26.32 22.69 26.89 23.92Q27.46 25.15 27.46 26.75L27.46 26.75Q27.46 29.06 26.30 30.78Q25.14 32.50 22.94 33.44Q20.73 34.38 17.64 34.38ZM33.96 41.14L28.83 41.14L28.83 14.89L33.87 14.89L33.87 18.11L34.11 18.11Q34.47 17.35 35.13 16.55Q35.79 15.75 36.86 15.20Q37.94 14.65 39.56 14.65L39.56 14.65Q41.68 14.65 43.44 15.75Q45.20 16.84 46.25 19.03Q47.30 21.22 47.30 24.48L47.30 24.48Q47.30 27.66 46.28 29.86Q45.25 32.05 43.49 33.19Q41.73 34.32 39.53 34.32L39.53 34.32Q37.97 34.32 36.90 33.79Q35.82 33.27 35.14 32.49Q34.47 31.71 34.11 30.94L34.11 30.94L33.96 30.94L33.96 41.14ZM37.96 30.21L37.96 30.21Q39.29 30.21 40.20 29.47Q41.12 28.74 41.59 27.44Q42.06 26.14 42.06 24.46L42.06 24.46Q42.06 22.79 41.59 21.51Q41.12 20.23 40.21 19.49Q39.31 18.76 37.96 18.76L37.96 18.76Q36.64 18.76 35.72 19.47Q34.79 20.17 34.32 21.45Q33.84 22.72 33.84 24.46L33.84 24.46Q33.84 26.19 34.32 27.48Q34.81 28.77 35.73 29.49Q36.66 30.21 37.96 30.21ZM57.25 34.38L57.25 34.38Q54.33 34.38 52.21 33.18Q50.09 31.98 48.95 29.78Q47.81 27.57 47.81 24.55L47.81 24.55Q47.81 21.59 48.94 19.37Q50.07 17.15 52.14 15.90Q54.21 14.65 56.99 14.65L56.99 14.65Q58.87 14.65 60.50 15.25Q62.12 15.85 63.35 17.06Q64.58 18.26 65.27 20.07Q65.96 21.88 65.96 24.34L65.96 24.34L65.96 25.78L49.92 25.78L49.92 22.57L63.45 22.57L61.06 23.42Q61.06 21.93 60.61 20.83Q60.15 19.73 59.26 19.12Q58.36 18.52 57.03 18.52L57.03 18.52Q55.71 18.52 54.78 19.13Q53.85 19.75 53.37 20.80Q52.89 21.85 52.89 23.20L52.89 23.20L52.89 25.47Q52.89 27.13 53.45 28.26Q54.00 29.39 55.00 29.95Q56.00 30.51 57.33 30.51L57.33 30.51Q58.24 30.51 58.97 30.26Q59.71 30.00 60.23 29.50Q60.75 28.99 61.03 28.26L61.03 28.26L65.67 29.13Q65.21 30.70 64.07 31.89Q62.92 33.08 61.20 33.73Q59.49 34.38 57.25 34.38ZM72.32 22.94L72.32 22.94L72.32 34L67.19 34L67.19 14.89L72.03 14.89L72.11 19.66L71.81 19.66Q72.56 17.27 74.09 15.96Q75.62 14.65 78.04 14.65L78.04 14.65Q80.03 14.65 81.50 15.52Q82.97 16.38 83.79 18.00Q84.61 19.61 84.61 21.85L84.61 21.85L84.61 34L79.48 34L79.48 22.74Q79.48 20.96 78.57 19.95Q77.65 18.94 76.03 18.94L76.03 18.94Q74.95 18.94 74.11 19.41Q73.26 19.88 72.79 20.77Q72.32 21.66 72.32 22.94ZM93.70 34.32L93.70 34.32Q91.49 34.32 89.72 33.19Q87.95 32.05 86.93 29.86Q85.90 27.66 85.90 24.48L85.90 24.48Q85.90 21.22 86.96 19.03Q88.02 16.84 89.78 15.75Q91.54 14.65 93.66 14.65L93.66 14.65Q95.29 14.65 96.36 15.20Q97.44 15.75 98.11 16.55Q98.77 17.35 99.10 18.11L99.10 18.11L99.27 18.11L99.27 8.54L104.40 8.54L104.40 34L99.35 34L99.35 30.94L99.10 30.94Q98.76 31.71 98.08 32.49Q97.41 33.27 96.33 33.79Q95.25 34.32 93.70 34.32ZM95.27 30.21L95.27 30.21Q96.57 30.21 97.49 29.49Q98.41 28.77 98.89 27.48Q99.37 26.19 99.37 24.46L99.37 24.46Q99.37 22.72 98.90 21.45Q98.43 20.17 97.51 19.47Q96.59 18.76 95.27 18.76L95.27 18.76Q93.92 18.76 93.00 19.49Q92.09 20.23 91.63 21.51Q91.17 22.79 91.17 24.46L91.17 24.46Q91.17 26.14 91.64 27.44Q92.11 28.74 93.02 29.47Q93.94 30.21 95.27 30.21ZM117.95 34L111.98 34L105.15 8.54L110.84 8.54L113.79 21.06Q114.15 22.64 114.45 24.42Q114.75 26.21 115.04 28.01Q115.33 29.81 115.60 31.47L115.60 31.47L114.68 31.47Q114.99 29.81 115.30 28.01Q115.60 26.21 115.93 24.42Q116.25 22.64 116.65 21.06L116.65 21.06L119.76 8.54L125.17 8.54L128.27 21.06Q128.66 22.64 128.99 24.42Q129.31 26.21 129.63 28.01Q129.94 29.81 130.25 31.47L130.25 31.47L129.29 31.47Q129.58 29.81 129.87 28.01Q130.15 26.21 130.46 24.42Q130.78 22.64 131.12 21.06L131.12 21.06L134.08 8.54L139.79 8.54L132.93 34L126.99 34L123.60 20.98Q123.06 18.81 122.67 16.27Q122.29 13.73 121.81 11.07L121.81 11.07L123.11 11.07Q122.58 13.68 122.24 16.18Q121.91 18.67 121.31 20.98L121.31 20.98L117.95 34ZM145.66 34L140.54 34L140.54 14.89L145.66 14.89L145.66 34ZM143.10 12.40L143.10 12.40Q141.94 12.40 141.12 11.63Q140.30 10.86 140.30 9.77L140.30 9.77Q140.30 8.67 141.12 7.90Q141.94 7.13 143.10 7.13L143.10 7.13Q144.26 7.13 145.09 7.90Q145.92 8.66 145.92 9.77L145.92 9.77Q145.92 10.86 145.09 11.63Q144.26 12.40 143.10 12.40ZM155.33 34.38L155.33 34.38Q153.03 34.38 151.25 33.72Q149.47 33.06 148.34 31.80Q147.22 30.55 146.89 28.77L146.89 28.77L151.66 27.95Q152.04 29.28 152.98 29.95Q153.92 30.62 155.49 30.62L155.49 30.62Q156.94 30.62 157.79 30.06Q158.65 29.51 158.65 28.65L158.65 28.65Q158.65 27.90 158.04 27.42Q157.44 26.94 156.19 26.69L156.19 26.69L152.89 26.00Q150.12 25.44 148.75 24.08Q147.39 22.72 147.39 20.58L147.39 20.58Q147.39 18.74 148.40 17.41Q149.40 16.09 151.20 15.37Q152.99 14.65 155.42 14.65L155.42 14.65Q157.68 14.65 159.33 15.28Q160.99 15.90 162.02 17.05Q163.04 18.19 163.38 19.75L163.38 19.75L158.84 20.55Q158.55 19.58 157.72 18.95Q156.89 18.33 155.49 18.33L155.49 18.33Q154.22 18.33 153.37 18.86Q152.51 19.39 152.51 20.26L152.51 20.26Q152.51 20.99 153.07 21.49Q153.62 21.99 154.97 22.26L154.97 22.26L158.41 22.94Q161.18 23.51 162.53 24.78Q163.88 26.05 163.88 28.10L163.88 28.10Q163.88 29.98 162.78 31.39Q161.69 32.80 159.77 33.59Q157.85 34.38 155.33 34.38ZM173.70 34.38L173.70 34.38Q170.78 34.38 168.66 33.18Q166.54 31.98 165.41 29.78Q164.27 27.57 164.27 24.55L164.27 24.55Q164.27 21.59 165.40 19.37Q166.53 17.15 168.59 15.90Q170.66 14.65 173.45 14.65L173.45 14.65Q175.33 14.65 176.95 15.25Q178.57 15.85 179.80 17.06Q181.03 18.26 181.73 20.07Q182.42 21.88 182.42 24.34L182.42 24.34L182.42 25.78L166.37 25.78L166.37 22.57L179.91 22.57L177.51 23.42Q177.51 21.93 177.06 20.83Q176.61 19.73 175.71 19.12Q174.81 18.52 173.48 18.52L173.48 18.52Q172.17 18.52 171.23 19.13Q170.30 19.75 169.82 20.80Q169.35 21.85 169.35 23.20L169.35 23.20L169.35 25.47Q169.35 27.13 169.90 28.26Q170.46 29.39 171.46 29.95Q172.46 30.51 173.79 30.51L173.79 30.51Q174.69 30.51 175.43 30.26Q176.16 30.00 176.69 29.50Q177.21 28.99 177.48 28.26L177.48 28.26L182.13 29.13Q181.67 30.70 180.52 31.89Q179.38 33.08 177.66 33.73Q175.94 34.38 173.70 34.38Z" fill="#0004E8"></path></g>
            
          </svg>